<svg aria-hidden="true" style="position: absolute; width: 0; height: 0; overflow: hidden;" version="1.1" xmlns="http://www.w3.org/2000/svg" xmlns:xlink="http://www.w3.org/1999/xlink">
<defs>
<symbol id="icon-files" viewBox="0 0 30 32">
<path d="M10.040 17.884c0-0.693 0.562-1.255 1.255-1.255h7.53c0.693 0 1.255 0.562 1.255 1.255s-0.562 1.255-1.255 1.255h-7.529c-0.693 0-1.255-0.562-1.255-1.255z"></path>
<path d="M10.040 22.59c0-0.693 0.562-1.255 1.255-1.255h3.765c0.693 0 1.255 0.562 1.255 1.255s-0.562 1.255-1.255 1.255h-3.765c-0.693 0-1.255-0.562-1.255-1.255z"></path>
<path d="M11.348 2.879c0.235-0.235 0.555-0.368 0.887-0.368h8.471c2.772 0 5.019 2.247 5.019 5.020v16.941c0 2.772-2.247 5.019-5.019 5.019h-11.294c-2.772 0-5.020-2.247-5.020-5.020l0-14.118c0-0.333 0.132-0.652 0.368-0.887l6.588-6.588zM11.922 5.854v4.186h-4.186l4.186-4.186zM6.902 12.55l-0 11.921c0 1.386 1.124 2.51 2.51 2.51h11.294c1.386 0 2.51-1.124 2.51-2.51v-16.941c0-1.386-1.124-2.51-2.51-2.51h-6.275v6.275c0 0.693-0.562 1.255-1.255 1.255h-6.274z"></path>
</symbol>
<symbol id="icon-mic" viewBox="0 0 30 32">
<path d="M7.78 8.973c0-4.020 3.259-7.278 7.278-7.278s7.278 3.259 7.278 7.278v6.024c0 4.020-3.259 7.278-7.279 7.278s-7.278-3.259-7.278-7.278v-6.024zM15.059 4.205c-2.634 0-4.769 2.135-4.769 4.769v6.024c0 2.634 2.135 4.769 4.769 4.769s4.769-2.135 4.769-4.769v-6.024c0-2.634-2.135-4.769-4.769-4.769z"></path>
<path d="M5.020 11.734c0.693 0 1.255 0.562 1.255 1.255v2.008c0 4.851 3.933 8.784 8.784 8.784s8.784-3.933 8.784-8.784v-2.008c0-0.693 0.562-1.255 1.255-1.255s1.255 0.562 1.255 1.255v2.008c0 6.238-5.057 11.294-11.294 11.294s-11.294-5.057-11.294-11.294v-2.008c0-0.693 0.562-1.255 1.255-1.255z"></path>
<path d="M15.059 24.785c0.693 0 1.255 0.562 1.255 1.255v1.757h2.761c0.693 0 1.255 0.562 1.255 1.255s-0.562 1.255-1.255 1.255h-8.031c-0.693 0-1.255-0.562-1.255-1.255s0.562-1.255 1.255-1.255h2.761v-1.757c0-0.693 0.562-1.255 1.255-1.255z"></path>
</symbol>
<symbol id="icon-video" viewBox="0 0 30 32">
<path d="M20.163 14.005c1.314 1.005 1.314 2.984 0 3.988l-5.747 4.393c-1.652 1.262-4.034 0.085-4.034-1.994v-8.785c0-2.079 2.382-3.256 4.034-1.994l5.747 4.393zM18.639 15.999l-5.747-4.393v8.785l5.747-4.393z"></path>
<path d="M15.059 4.705c-6.238 0-11.294 5.057-11.294 11.294s5.057 11.294 11.294 11.294c6.237 0 11.294-5.056 11.294-11.294s-5.057-11.294-11.294-11.294zM1.255 15.999c0-7.624 6.18-13.804 13.804-13.804s13.804 6.18 13.804 13.804c0 7.624-6.18 13.804-13.804 13.804s-13.804-6.18-13.804-13.804z"></path>
</symbol>
<symbol id="icon-right" viewBox="0 0 32 32">
<path d="M19.724 9.057c0.521-0.521 1.365-0.521 1.886 0l6 6c0.521 0.521 0.521 1.365 0 1.886l-6 6c-0.521 0.521-1.365 0.521-1.886 0s-0.521-1.365 0-1.886l3.724-3.724h-18.114c-0.736 0-1.333-0.597-1.333-1.333s0.597-1.333 1.333-1.333h18.114l-3.724-3.724c-0.521-0.521-0.521-1.365 0-1.886z"></path>
</symbol>
<symbol id="icon-clock" viewBox="0 0 34 32">
<path  d="M18.489 8.176c0-0.785-0.637-1.422-1.422-1.422s-1.422 0.637-1.422 1.422v7.822c0 0.377 0.15 0.739 0.417 1.006l4.267 4.267c0.555 0.555 1.456 0.555 2.011 0s0.556-1.456 0-2.011l-3.85-3.85v-7.233z"></path>
<path  d="M17.066 0.354c-8.64 0-15.644 7.004-15.644 15.644s7.004 15.644 15.644 15.644c8.64 0 15.645-7.004 15.645-15.644s-7.004-15.644-15.645-15.644zM4.266 15.999c0-7.069 5.731-12.8 12.8-12.8s12.8 5.731 12.8 12.8c0 7.069-5.731 12.8-12.8 12.8s-12.8-5.731-12.8-12.8z"></path>
</symbol>
<symbol id="icon-calendar" viewBox="0 0 34 32">
<path d="M10.667 0.713c0.785 0 1.422 0.637 1.422 1.422v0.711l9.956 0v-0.711c0-0.785 0.637-1.422 1.422-1.422s1.422 0.637 1.422 1.422v0.711l1.778 0c3.142 0 5.689 2.547 5.689 5.689v17.067c0 3.142-2.547 5.689-5.689 5.689h-19.2c-3.142 0-5.689-2.547-5.689-5.689v-17.067c0-3.142 2.547-5.689 5.689-5.689h1.778v-0.711c0-0.785 0.637-1.422 1.422-1.422zM9.245 5.69h-1.778c-1.571 0-2.844 1.274-2.844 2.844v1.778h24.889v-1.778c0-1.571-1.274-2.844-2.844-2.844h-1.778v0.711c0 0.785-0.637 1.422-1.422 1.422s-1.422-0.637-1.422-1.422v-0.711l-9.956-0v0.711c0 0.785-0.637 1.422-1.422 1.422s-1.422-0.637-1.422-1.422v-0.711zM29.511 13.157h-24.889v12.445c0 1.571 1.274 2.844 2.844 2.844h19.2c1.571 0 2.844-1.274 2.844-2.845v-12.444z"></path>
</symbol>
<symbol id="icon-chat" viewBox="0 0 32 32">
<path d="M29.231 14.091c-0.19 1.316-0.64 2.566-1.307 3.716 0.050 0.285 0.076 0.572 0.076 0.861 0 1.004-0.291 1.964-0.83 2.837-0.269 0.436-0.338 0.946-0.365 1.283-0.030 0.387-0.020 0.81 0.007 1.216 0.031 0.456 0.087 0.934 0.151 1.386-0.52-0.152-1.085-0.304-1.623-0.426-0.448-0.101-0.906-0.187-1.321-0.23-0.362-0.037-0.885-0.066-1.353 0.085-1.023 0.331-2.148 0.515-3.334 0.515-1.411 0-2.706-0.25-3.842-0.685-0.273 0.012-0.548 0.019-0.825 0.019-1.606 0-3.152-0.211-4.598-0.602 2.103 2.432 5.569 3.935 9.265 3.935 1.444 0 2.83-0.222 4.107-0.629 0.002 0 0.006 0 0.012 0 0.033-0.001 0.124-0.003 0.294 0.015 0.268 0.028 0.611 0.089 1.008 0.179 0.79 0.178 1.677 0.441 2.369 0.661 1.467 0.466 2.888-0.814 2.626-2.303-0.113-0.641-0.23-1.423-0.276-2.1-0.023-0.341-0.026-0.62-0.010-0.825 0.007-0.085 0.015-0.138 0.021-0.167 0.75-1.243 1.182-2.658 1.182-4.164 0-1.698-0.527-3.249-1.435-4.577z"></path>
<path d="M7.462 7.599c-1.797 1.374-2.796 3.179-2.796 5.069 0 0.943 0.245 1.851 0.706 2.695 0.175 0.322 0.225 0.653 0.243 0.878 0.019 0.245 0.010 0.497-0.012 0.732-0.043 0.471-0.144 1.005-0.266 1.531-0.143 0.615-0.326 1.271-0.511 1.887 0.704-0.256 1.474-0.518 2.204-0.731 0.59-0.172 1.185-0.321 1.716-0.405 0.457-0.072 1.119-0.143 1.69 0.054 1.28 0.443 2.713 0.693 4.231 0.693 2.863 0 5.405-0.889 7.204-2.264s2.796-3.179 2.796-5.069-0.999-3.695-2.796-5.069c-1.798-1.375-4.341-2.264-7.204-2.264s-5.405 0.889-7.204 2.264zM5.842 5.481c2.303-1.761 5.427-2.813 8.824-2.813s6.52 1.051 8.824 2.813c2.305 1.762 3.843 4.291 3.843 7.187s-1.538 5.425-3.843 7.187c-2.303 1.761-5.428 2.813-8.824 2.813-1.791 0-3.501-0.292-5.054-0.823-0.002 0.004-0.128-0.008-0.45 0.043-0.372 0.059-0.846 0.174-1.385 0.331-1.074 0.313-2.28 0.757-3.199 1.114-1.591 0.619-3.213-0.909-2.677-2.537 0.284-0.863 0.619-1.953 0.838-2.895 0.11-0.474 0.181-0.873 0.208-1.168 0.009-0.103 0.012-0.177 0.011-0.228-0.614-1.173-0.959-2.47-0.959-3.837 0-2.896 1.538-5.425 3.843-7.187z"></path>
</symbol>
<symbol id="icon-check" viewBox="0 0 32 32">
<path d="M16 30.667c8.087 0 14.667-6.579 14.667-14.667 0-1.396-0.195-2.771-0.581-4.089-0.19-0.648-0.866-1.020-1.516-0.83-0.648 0.189-1.019 0.868-0.83 1.516 0.32 1.095 0.482 2.24 0.482 3.403 0 6.739-5.483 12.222-12.222 12.222s-12.222-5.483-12.222-12.222c0-6.739 5.483-12.222 12.222-12.222 2.449 0 4.806 0.716 6.815 2.071 0.559 0.377 1.319 0.229 1.696-0.33s0.23-1.319-0.33-1.697c-2.414-1.628-5.243-2.488-8.181-2.488-8.087 0-14.667 6.579-14.667 14.667s6.58 14.667 14.667 14.667z"></path>
<path d="M29.723 3.058l-13.724 13.723-4.391-4.39c-0.521-0.521-1.365-0.521-1.885 0s-0.521 1.365 0 1.885l5.333 5.333c0.261 0.261 0.601 0.391 0.943 0.391s0.682-0.13 0.943-0.391l14.667-14.667c0.521-0.521 0.521-1.365 0-1.885s-1.365-0.521-1.885 0z"></path>
</symbol>
<symbol id="icon-ellipse" viewBox="0 0 32 32">
<path d="M32 16c0 8.837-7.163 16-16 16s-16-7.163-16-16c0-8.837 7.163-16 16-16s16 7.163 16 16z"></path>
</symbol>

<svg  viewBox="0 0 11 14">
<path d="M10.5 6.13398C11.1667 6.51888 11.1667 7.48113 10.5 7.86603L1.5 13.0622C0.833332 13.4471 -6.10471e-07 12.966 -5.76822e-07 12.1962L-1.2256e-07 1.80385C-8.8911e-08 1.03405 0.833334 0.552922 1.5 0.937822L10.5 6.13398Z" fill="white"/>
</svg>

<symbol id="icon-hover" viewBox="0 0 11 14">
<path d="M10.5 6.13398C11.1667 6.51888 11.1667 7.48113 10.5 7.86603L1.5 13.0622C0.833332 13.4471 -6.10471e-07 12.966 -5.76822e-07 12.1962L-1.2256e-07 1.80385C-8.8911e-08 1.03405 0.833334 0.552922 1.5 0.937822L10.5 6.13398Z" fill="white"/>
</symbol>
<symbol id="icon-layouts" viewBox="0 0 32 32">
<path d="M15.404 1.473c0.375-0.188 0.817-0.188 1.193 0l13.333 6.667c0.452 0.226 0.737 0.688 0.737 1.193s-0.285 0.967-0.737 1.193l-13.333 6.667c-0.375 0.188-0.817 0.188-1.193 0l-13.333-6.667c-0.452-0.226-0.737-0.688-0.737-1.193s0.285-0.967 0.737-1.193l13.333-6.667zM5.648 9.332l10.352 5.176 10.352-5.176-10.352-5.176-10.352 5.176z"></path>
<path d="M1.474 15.402c0.329-0.659 1.13-0.926 1.789-0.596l12.737 6.368 12.737-6.368c0.659-0.329 1.46-0.062 1.789 0.596s0.062 1.46-0.596 1.789l-13.333 6.667c-0.375 0.188-0.817 0.188-1.193 0l-13.333-6.667c-0.659-0.329-0.926-1.13-0.596-1.789z"></path>
<path d="M1.474 22.069c0.329-0.659 1.13-0.926 1.789-0.596l12.737 6.369 12.737-6.369c0.659-0.329 1.46-0.062 1.789 0.596s0.062 1.46-0.596 1.789l-13.333 6.667c-0.375 0.188-0.817 0.188-1.193 0l-13.333-6.667c-0.659-0.329-0.926-1.13-0.596-1.789z"></path>
</symbol>
<symbol id="icon-like" viewBox="0 0 32 32">
<path d="M18.909 4.335c-0.186 0-0.358 0.099-0.453 0.26l-0.008 0.014-6.115 9.914v13.146h11.448c0.246 0 0.458-0.171 0.511-0.41l0.005-0.021 3.4-13.28c0.062-0.322-0.184-0.623-0.514-0.623h-5.183c-0.868 0-1.747-0.29-2.386-0.914-0.672-0.656-0.984-1.596-0.784-2.609l0.958-4.851c0.064-0.324-0.184-0.625-0.514-0.625h-0.365zM9.667 27.668v-12.191h-4.725c-0.288 0-0.522 0.232-0.524 0.52 0 0 0 0 0 0l-0.085 11.143c-0.002 0.291 0.233 0.528 0.524 0.528h4.81zM10.256 12.811l5.907-9.576c0.574-0.97 1.618-1.567 2.746-1.567h0.365c2.010 0 3.52 1.837 3.13 3.809l-0.958 4.851c-0.017 0.086-0.006 0.126-0.003 0.134s0.009 0.026 0.034 0.049c0.056 0.054 0.222 0.156 0.524 0.156h5.183c2.041 0 3.557 1.89 3.114 3.883l-0.005 0.021-3.402 13.288c-0.333 1.447-1.622 2.475-3.109 2.475h-18.924c-1.771 0-3.204-1.443-3.19-3.215 0 0 0 0 0 0l0.085-11.143c0.013-1.752 1.438-3.166 3.19-3.166h5.314z"></path>
</symbol>
<symbol id="icon-logo" viewBox="0 0 189 32">
<path d="M0 16.145c0-8.873 4.8-14.255 12.655-14.255 5.964 0 10.764 3.636 11.636 9.018 0.145 0.582-0.291 1.018-0.873 1.018h-3.782c-0.436 0-0.727-0.291-0.873-0.727-0.727-2.764-3.055-4.509-6.109-4.509-4.218 0-6.836 3.636-6.836 9.455s2.618 9.455 6.982 9.455c3.055 0 5.236-1.6 6.109-4.218 0.145-0.436 0.436-0.727 0.873-0.727h3.782c0.582 0 1.018 0.582 0.873 1.018-0.873 5.236-5.527 8.727-11.636 8.727-8 0-12.8-5.527-12.8-14.255z"></path>
<path d="M35.345 29.673h-4.218c-0.436 0-0.727-0.291-0.727-0.727v-25.164c0-0.582 0.582-1.164 1.164-1.164h10.182c5.964 0 9.6 3.345 9.6 8.582 0 3.055-1.455 5.818-3.927 7.273-0.582 0.291-0.727 1.018-0.436 1.455l4.509 8.582c0.291 0.436-0.145 1.018-0.582 1.018h-4.8c-0.291 0-0.582-0.145-0.727-0.436l-4.218-8.727c-0.145-0.436-0.582-0.582-1.018-0.582h-3.345c-0.436 0-0.727 0.291-0.727 0.727v8.582c0.145 0.291-0.291 0.582-0.727 0.582zM36.218 14.836c0 0.436 0.291 0.727 0.727 0.727h4.364c2.909 0 4.509-1.6 4.509-4.218s-1.745-4.218-4.509-4.218h-4.218c-0.436 0-0.727 0.291-0.727 0.727v6.982h-0.145z"></path>
<path d="M74.909 29.673h-16c-0.582 0-1.018-0.436-1.018-1.018v-25.018c0-0.582 0.436-1.018 1.018-1.018h16c0.582 0 1.018 0.436 1.018 1.018v2.764c0 0.582-0.436 1.018-1.018 1.018h-10.618c-0.436 0-0.727 0.291-0.727 0.727v4.945c0 0.436 0.291 0.727 0.727 0.727h9.891c0.582 0 1.018 0.436 1.018 1.018v2.473c0 0.582-0.436 1.018-1.018 1.018h-9.891c-0.436 0-0.727 0.291-0.727 0.727v5.527c0 0.436 0.291 0.727 0.727 0.727h10.618c0.582 0 1.018 0.436 1.018 1.018v2.764c0 0.145-0.436 0.582-1.018 0.582z"></path>
<path d="M97.454 23.127h-8.291c-0.436 0-0.727 0.291-0.873 0.582l-1.6 5.382c-0.145 0.436-0.436 0.582-0.873 0.582h-3.782c-0.582 0-1.018-0.582-0.873-1.164l8.727-25.309c0.145-0.291 0.436-0.582 0.873-0.582h5.382c0.436 0 0.727 0.291 0.873 0.582l8.727 25.309c0.145 0.582-0.291 1.164-0.873 1.164h-4.218c-0.436 0-0.727-0.291-0.873-0.582l-1.6-5.382c0-0.291-0.436-0.582-0.727-0.582zM90.327 18.909h5.964c0.291 0 0.436-0.291 0.436-0.582l-3.2-10.182h-0.291l-3.2 10.182c-0.145 0.291 0 0.582 0.291 0.582z"></path>
<path d="M114.909 28.655v-20.655c0-0.436-0.291-0.727-0.727-0.727h-6.4c-0.582 0-1.164-0.436-1.164-1.164v-2.473c0-0.582 0.436-1.164 1.164-1.164h19.782c0.582 0 1.164 0.436 1.164 1.164v2.473c0 0.582-0.436 1.164-1.164 1.164h-6.4c-0.436 0-0.727 0.291-0.727 0.727v20.8c0 0.582-0.436 1.018-1.018 1.018h-3.636c-0.436-0.146-0.873-0.582-0.873-1.164z"></path>
<path d="M150.982 29.673h-16c-0.582 0-1.018-0.436-1.018-1.018v-25.018c0-0.582 0.436-1.018 1.018-1.018h16c0.582 0 1.018 0.436 1.018 1.018v2.764c0 0.582-0.436 1.018-1.018 1.018h-10.618c-0.436 0-0.727 0.291-0.727 0.727v4.945c0 0.436 0.291 0.727 0.727 0.727h9.891c0.582 0 1.018 0.436 1.018 1.018v2.473c0 0.582-0.436 1.018-1.018 1.018h-9.891c-0.436 0-0.727 0.291-0.727 0.727v5.527c0 0.436 0.291 0.727 0.727 0.727h10.618c0.582 0 1.018 0.436 1.018 1.018v2.764c0 0.145-0.436 0.582-1.018 0.582z"></path>
<path d="M171.2 14.109l-9.018-11.782c-0.582-0.582-1.309-0.873-2.036-0.873s-1.455 0.291-2.036 0.873c-1.018 1.164-1.018 2.909 0 4.073l7.127 9.6-7.127 9.6c-1.018 1.164-1.018 2.909 0 4.073 0.582 0.582 1.309 0.873 2.036 0.873s1.455-0.291 2.036-0.873l9.018-11.782c1.018-0.873 1.018-2.618 0-3.782z"></path>
<path d="M175.044 14.109l9.018-11.782c0.582-0.582 1.309-0.873 2.036-0.873s1.455 0.291 2.036 0.873c1.018 1.164 1.018 2.909 0 4.073l-7.127 9.6 7.127 9.6c1.018 1.164 1.018 2.909 0 4.073-0.582 0.582-1.309 0.873-2.036 0.873s-1.455-0.291-2.036-0.873l-9.018-11.782c-1.018-0.873-1.018-2.618 0-3.782z"></path>
</symbol>
<symbol id="icon-profile" viewBox="0 0 32 32">
<path d="M16 4.334c-2.577 0-4.667 2.089-4.667 4.667s2.089 4.667 4.667 4.667c2.577 0 4.667-2.089 4.667-4.667s-2.089-4.667-4.667-4.667zM8.667 9.001c0-4.050 3.283-7.333 7.333-7.333s7.333 3.283 7.333 7.333c0 4.050-3.283 7.333-7.333 7.333s-7.333-3.283-7.333-7.333z"></path>
<path d="M8.139 20.334c-0.924 0-1.647 0.45-1.94 1.097-0.406 0.895-0.774 1.961-0.86 2.971-0.039 0.452 0.15 0.785 0.409 0.946 1.372 0.852 4.552 2.319 10.253 2.319s8.88-1.467 10.253-2.319c0.26-0.161 0.448-0.494 0.409-0.946-0.087-1.011-0.454-2.076-0.86-2.971-0.293-0.647-1.016-1.097-1.94-1.097h-15.723zM3.77 20.329c0.811-1.787 2.621-2.662 4.369-2.662h15.723c1.748 0 3.558 0.875 4.369 2.662 0.466 1.027 0.965 2.407 1.089 3.845 0.112 1.31-0.432 2.677-1.659 3.439-1.805 1.121-5.474 2.721-11.66 2.721s-9.855-1.6-11.66-2.721c-1.227-0.762-1.771-2.13-1.659-3.439 0.123-1.438 0.623-2.818 1.089-3.845z"></path>
</symbol>
<symbol id="icon-telephone" viewBox="0 0 20 32">
<path d="M5.334 3.897c-1.105 0-2 0.895-2 2v20.208c0 1.105 0.895 2 2 2h9.333c1.105 0 2-0.895 2-2v-20.208c0-1.105-0.895-2-2-2h-0.111l-0.325 0.779c-0.207 0.497-0.693 0.82-1.231 0.82h-6c-0.538 0-1.024-0.324-1.231-0.82l-0.325-0.779h-0.111zM0.667 5.897c0-2.577 2.089-4.667 4.667-4.667h9.333c2.577 0 4.667 2.089 4.667 4.667v20.208c0 2.577-2.089 4.667-4.667 4.667h-9.333c-2.577 0-4.667-2.089-4.667-4.667v-20.208z"></path>
</symbol>
<symbol id="icon-star" viewBox="0 0 32 32">
<path d="M13.559 2.934c0.926-2.136 3.956-2.136 4.882 0l2.802 6.462 7.012 0.668c2.318 0.221 3.254 3.102 1.509 4.643l-5.28 4.662 1.531 6.875c0.506 2.273-1.945 4.053-3.95 2.87l-6.065-3.581-6.065 3.581c-2.005 1.184-4.456-0.597-3.95-2.87l1.531-6.875-5.28-4.662c-1.745-1.541-0.809-4.422 1.509-4.643l7.012-0.668 2.802-6.462zM18.802 10.455l-2.802-6.462-2.802 6.462c-0.386 0.889-1.224 1.498-2.189 1.59l-7.012 0.668 5.28 4.662c0.726 0.641 1.047 1.627 0.836 2.573l-1.531 6.875 6.065-3.581c0.834-0.493 1.871-0.493 2.705 0l6.065 3.581-1.531-6.875c-0.211-0.946 0.109-1.932 0.836-2.573l5.28-4.662-7.012-0.668c-0.965-0.092-1.803-0.701-2.189-1.59z"></path>
</symbol>
<symbol id="icon-youtube" viewBox="0 0 43 32">
<path d="M38.027 1.98c1.827 0.492 3.268 1.933 3.76 3.761 0.914 3.339 0.879 10.297 0.879 10.297s0 6.924-0.879 10.262c-0.492 1.827-1.933 3.268-3.761 3.76-3.339 0.879-16.694 0.879-16.694 0.879s-13.32 0-16.694-0.914c-1.828-0.492-3.269-1.933-3.761-3.761-0.879-3.304-0.879-10.262-0.879-10.262s0-6.924 0.879-10.262c0.492-1.827 1.968-3.304 3.76-3.796 3.339-0.879 16.694-0.879 16.694-0.879s13.355 0 16.694 0.914zM28.186 16.003l-11.106 6.396v-12.793l11.106 6.396z"></path>
</symbol>
<symbol id="icon-mail" viewBox="0 0 43 32">
<path d="M40.445 26.665v-19.556c0-2.946-2.388-5.333-5.333-5.333l-27.555 0c-2.946 0-5.333 2.388-5.333 5.333v19.555c0 2.945 2.388 5.333 5.333 5.333h27.555c2.946 0 5.333-2.388 5.333-5.333zM36.889 11.126v15.539c0 0.982-0.796 1.778-1.778 1.778h-27.555c-0.982 0-1.778-0.796-1.778-1.778v-15.539l12.557 8.539c1.81 1.231 4.188 1.231 5.998 0l12.556-8.538zM36.869 6.84l-14.535 9.884c-0.603 0.41-1.396 0.41-1.999 0l-14.536-9.884c0.13-0.854 0.867-1.508 1.758-1.508l27.556-0c0.89 0 1.628 0.654 1.758 1.509z"></path>
</symbol>
<symbol id="icon-heart-like" viewBox="0 0 37 32">
<path d="M18.285 28.049c-7.008-3.992-10.917-7.959-12.807-11.401-1.934-3.523-1.766-6.49-0.692-8.596 2.206-4.329 8.481-5.713 12.304-0.878l1.195 1.512 1.195-1.512c3.824-4.835 10.098-3.451 12.305 0.878 1.073 2.106 1.242 5.073-0.693 8.596-1.89 3.442-5.799 7.409-12.807 11.401zM18.285 3.971c-5.378-5.11-13.311-2.998-16.214 2.697-1.593 3.126-1.615 7.165 0.736 11.447 2.33 4.244 6.976 8.723 14.741 13.015l0.737 0.407 0.737-0.407c7.765-4.292 12.411-8.771 14.742-13.015 2.351-4.282 2.33-8.322 0.736-11.447-2.903-5.695-10.837-7.807-16.215-2.697z"></path>
</symbol>
<symbol id="icon-twitter" viewBox="0 0 39 32">
<path d="M38.222 4.929c-1.374 0.583-2.848 0.978-4.398 1.155 1.582-0.907 2.793-2.345 3.366-4.054-1.484 0.84-3.121 1.45-4.867 1.78-1.397-1.427-3.385-2.316-5.59-2.316-4.229 0-7.659 3.284-7.659 7.331 0 0.574 0.068 1.135 0.198 1.671-6.364-0.306-12.007-3.226-15.784-7.662-0.66 1.081-1.036 2.341-1.036 3.686 0 2.544 1.353 4.789 3.406 6.103-1.255-0.040-2.436-0.371-3.469-0.92v0.092c0 3.552 2.641 6.516 6.143 7.191-0.642 0.165-1.318 0.257-2.018 0.257-0.495 0-0.973-0.047-1.442-0.136 0.975 2.915 3.803 5.035 7.153 5.093-2.62 1.966-5.923 3.134-9.511 3.134-0.618 0-1.227-0.036-1.827-0.101 3.39 2.084 7.414 3.299 11.739 3.299 14.088 0 21.789-11.174 21.789-20.864l-0.026-0.949c1.505-1.028 2.806-2.319 3.831-3.789z"></path>
</symbol>
<symbol id="icon-telegram" viewBox="0 0 35 32">
<path d="M13.812 21.090l-0.582 8.934c0.833 0 1.194-0.39 1.627-0.859l3.906-4.072 8.093 6.466c1.484 0.902 2.53 0.427 2.931-1.49l5.312-27.155 0.001-0.002c0.471-2.394-0.793-3.33-2.24-2.742l-31.226 13.042c-2.131 0.902-2.099 2.198-0.362 2.786l7.983 2.709 18.544-12.657c0.873-0.63 1.666-0.282 1.013 0.349l-15 14.693z"></path>
</symbol>
<symbol id="icon-instagram" viewBox="0 0 34 32">
<path d="M31.969 9.408c-0.075-1.7-0.35-2.869-0.744-3.882-0.406-1.075-1.032-2.038-1.851-2.838-0.8-0.813-1.769-1.444-2.832-1.844-1.019-0.394-2.182-0.669-3.882-0.744-1.713-0.081-2.257-0.1-6.601-0.1s-4.888 0.019-6.595 0.094c-1.7 0.075-2.869 0.35-3.882 0.744-1.075 0.406-2.038 1.031-2.838 1.85-0.813 0.8-1.444 1.769-1.844 2.832-0.394 1.019-0.669 2.182-0.744 3.882-0.081 1.713-0.1 2.257-0.1 6.601s0.019 4.888 0.094 6.595c0.075 1.7 0.35 2.869 0.744 3.882 0.406 1.075 1.038 2.038 1.85 2.838 0.8 0.813 1.769 1.444 2.832 1.844 1.019 0.394 2.182 0.669 3.882 0.744 1.706 0.075 2.25 0.094 6.595 0.094s4.888-0.019 6.595-0.094c1.7-0.075 2.869-0.35 3.882-0.744 2.151-0.832 3.851-2.532 4.682-4.682 0.394-1.019 0.669-2.182 0.744-3.882 0.075-1.707 0.094-2.251 0.094-6.595s-0.006-4.888-0.081-6.595zM29.087 22.473c-0.069 1.563-0.331 2.407-0.55 2.969-0.538 1.394-1.644 2.5-3.038 3.038-0.563 0.219-1.413 0.481-2.969 0.55-1.688 0.075-2.194 0.094-6.464 0.094s-4.782-0.019-6.464-0.094c-1.563-0.069-2.407-0.331-2.969-0.55-0.694-0.256-1.325-0.663-1.838-1.194-0.531-0.519-0.938-1.144-1.194-1.838-0.219-0.563-0.481-1.413-0.55-2.969-0.075-1.688-0.094-2.194-0.094-6.464s0.019-4.782 0.094-6.464c0.069-1.563 0.331-2.407 0.55-2.969 0.256-0.694 0.663-1.325 1.2-1.838 0.519-0.531 1.144-0.938 1.838-1.194 0.563-0.219 1.413-0.481 2.969-0.55 1.688-0.075 2.194-0.094 6.464-0.094 4.276 0 4.782 0.019 6.464 0.094 1.563 0.069 2.407 0.331 2.969 0.55 0.694 0.256 1.325 0.662 1.838 1.194 0.531 0.519 0.938 1.144 1.194 1.838 0.219 0.563 0.481 1.413 0.55 2.969 0.075 1.688 0.094 2.194 0.094 6.464s-0.019 4.77-0.094 6.458z"></path>
<path d="M16.059 7.783c-4.538 0-8.22 3.682-8.22 8.22s3.682 8.22 8.22 8.22c4.538 0 8.22-3.682 8.22-8.22s-3.682-8.22-8.22-8.22zM16.059 21.336c-2.944 0-5.332-2.388-5.332-5.332s2.388-5.332 5.332-5.332c2.944 0 5.332 2.388 5.332 5.332s-2.388 5.332-5.332 5.332z"></path>
<path d="M26.524 7.458c0 1.060-0.859 1.919-1.919 1.919s-1.919-0.859-1.919-1.919c0-1.060 0.859-1.919 1.919-1.919s1.919 0.859 1.919 1.919z"></path>
</symbol>
<symbol id="icon-linkedin" viewBox="0 0 32 32">
<path d="M31.992 32l0.008-0.001v-11.736c0-5.741-1.236-10.164-7.948-10.164-3.227 0-5.392 1.771-6.276 3.449h-0.093v-2.913h-6.364v21.364h6.627v-10.579c0-2.785 0.528-5.479 3.977-5.479 3.399 0 3.449 3.179 3.449 5.657v10.401h6.62z"></path>
<path d="M0.528 10.636h6.635v21.364h-6.635v-21.364z"></path>
<path d="M3.843 0c-2.121 0-3.843 1.721-3.843 3.843s1.721 3.879 3.843 3.879c2.121 0 3.843-1.757 3.843-3.879-0.001-2.121-1.723-3.843-3.843-3.843z"></path>
</symbol>
<symbol id="icon-facebook" viewBox="0 0 17 32">
<path d="M16.819 0.007l-4.040-0.007c-4.538 0-7.471 3.091-7.471 7.875v3.631h-4.062c-0.351 0-0.635 0.292-0.635 0.653v5.261c0 0.36 0.285 0.652 0.635 0.652h4.062v13.275c0 0.361 0.284 0.652 0.635 0.652h5.299c0.351 0 0.635-0.292 0.635-0.652v-13.275h4.749c0.351 0 0.635-0.292 0.635-0.652l0.002-5.261c0-0.173-0.067-0.339-0.186-0.461s-0.281-0.191-0.45-0.191h-4.751v-3.078c0-1.479 0.343-2.23 2.219-2.23l2.721-0.001c0.351 0 0.635-0.292 0.635-0.652v-4.885c0-0.36-0.284-0.652-0.634-0.652z"></path>
</symbol>
<symbol id="icon-Facebook" viewBox="0 0 32 32">
<path opacity="0.6" d="M23.417 1.34l-3.703-0.006c-4.16 0-6.849 2.833-6.849 7.219v3.328h-3.723c-0.322 0-0.582 0.268-0.582 0.598v4.822c0 0.331 0.261 0.598 0.582 0.598h3.723v12.169c0 0.33 0.261 0.598 0.582 0.598h4.858c0.322 0 0.582-0.268 0.582-0.598v-12.169h4.353c0.322 0 0.582-0.268 0.582-0.598l0.002-4.822c0-0.159-0.061-0.311-0.171-0.423s-0.258-0.175-0.412-0.175h-4.355v-2.822c0-1.356 0.315-2.045 2.034-2.045l2.495-0.001c0.321 0 0.582-0.268 0.582-0.598v-4.478c0-0.33-0.26-0.598-0.581-0.598z"></path>
</symbol>
<symbol id="icon-Instagram" viewBox="0 0 32 32">
<path opacity="0.6" d="M29.307 10.506c-0.063-1.417-0.292-2.391-0.62-3.235-0.339-0.896-0.86-1.698-1.542-2.365-0.667-0.677-1.474-1.203-2.36-1.537-0.849-0.328-1.818-0.557-3.235-0.62-1.428-0.068-1.881-0.083-5.501-0.083s-4.074 0.016-5.496 0.078c-1.417 0.062-2.391 0.292-3.235 0.62-0.896 0.339-1.698 0.86-2.365 1.542-0.677 0.667-1.203 1.474-1.537 2.36-0.328 0.849-0.557 1.818-0.62 3.235-0.068 1.428-0.083 1.881-0.083 5.501s0.016 4.074 0.078 5.496c0.062 1.417 0.292 2.391 0.62 3.235 0.339 0.896 0.865 1.698 1.542 2.365 0.667 0.677 1.474 1.204 2.36 1.537 0.849 0.328 1.818 0.557 3.235 0.62 1.422 0.063 1.875 0.078 5.496 0.078s4.074-0.015 5.496-0.078c1.417-0.063 2.391-0.292 3.235-0.62 1.792-0.693 3.209-2.11 3.902-3.902 0.328-0.849 0.557-1.818 0.62-3.235 0.062-1.422 0.078-1.875 0.078-5.496s-0.005-4.074-0.068-5.496zM26.906 21.393c-0.057 1.302-0.276 2.006-0.458 2.474-0.448 1.162-1.37 2.084-2.532 2.532-0.469 0.182-1.177 0.401-2.475 0.458-1.406 0.063-1.828 0.078-5.386 0.078s-3.985-0.015-5.387-0.078c-1.302-0.057-2.006-0.276-2.474-0.458-0.578-0.214-1.104-0.552-1.531-0.995-0.443-0.432-0.781-0.953-0.995-1.532-0.182-0.469-0.401-1.177-0.458-2.474-0.063-1.407-0.078-1.829-0.078-5.387s0.015-3.985 0.078-5.386c0.057-1.302 0.276-2.006 0.458-2.474 0.214-0.578 0.552-1.104 1-1.532 0.432-0.443 0.953-0.781 1.531-0.995 0.469-0.182 1.177-0.401 2.474-0.458 1.407-0.062 1.829-0.078 5.386-0.078 3.563 0 3.985 0.016 5.387 0.078 1.302 0.057 2.005 0.276 2.474 0.458 0.578 0.213 1.104 0.552 1.531 0.995 0.443 0.432 0.781 0.953 0.995 1.532 0.182 0.469 0.401 1.177 0.458 2.474 0.062 1.407 0.078 1.828 0.078 5.386s-0.016 3.975-0.078 5.381z"></path>
<path opacity="0.6" d="M16.049 9.151c-3.782 0-6.85 3.068-6.85 6.85s3.068 6.85 6.85 6.85c3.782 0 6.85-3.068 6.85-6.85s-3.068-6.85-6.85-6.85zM16.049 20.445c-2.453 0-4.444-1.99-4.444-4.444s1.99-4.444 4.444-4.444c2.454 0 4.444 1.99 4.444 4.444s-1.99 4.444-4.444 4.444z"></path>
<path opacity="0.6" d="M24.77 8.88c0 0.883-0.716 1.599-1.599 1.599s-1.599-0.716-1.599-1.599c0-0.883 0.716-1.599 1.599-1.599s1.599 0.716 1.599 1.599z"></path>
</symbol>
<symbol id="icon-Linked-In" viewBox="0 0 32 32">
<path d="M29.326 29.332l0.007-0.001v-9.78c0-4.784-1.030-8.47-6.623-8.47-2.689 0-4.493 1.476-5.23 2.874h-0.078v-2.428h-5.303v17.803h5.522v-8.816c0-2.321 0.44-4.566 3.315-4.566 2.832 0 2.874 2.649 2.874 4.714v8.668h5.517z"></path>
<path d="M3.106 11.529h5.529v17.803h-5.529v-17.803z"></path>
<path d="M5.869 2.666c-1.768 0-3.202 1.434-3.202 3.202s1.434 3.232 3.202 3.232c1.768 0 3.202-1.464 3.202-3.232-0.001-1.768-1.436-3.202-3.202-3.202z"></path>
</symbol>
<symbol id="icon-next-btn" viewBox="0 0 48 32">
<path d="M31.448 2.114c1.041-1.041 2.73-1.041 3.771 0l12 12c1.041 1.041 1.041 2.73 0 3.771l-12 12c-1.041 1.041-2.73 1.041-3.771 0s-1.041-2.73 0-3.771l7.448-7.448h-36.229c-1.473 0-2.667-1.194-2.667-2.667s1.194-2.667 2.667-2.667h36.229l-7.448-7.448c-1.041-1.041-1.041-2.73 0-3.771z"></path>
</symbol>
<symbol id="icon-prev-btn" viewBox="0 0 32 32">
<path d="M12.276 22.943c-0.521 0.521-1.365 0.521-1.886 0l-6-6c-0.521-0.521-0.521-1.365 0-1.886l6-6c0.521-0.521 1.365-0.521 1.886 0s0.521 1.365 0 1.886l-3.724 3.724h18.114c0.736 0 1.333 0.597 1.333 1.333s-0.597 1.333-1.333 1.333h-18.114l3.724 3.724c0.521 0.521 0.521 1.365 0 1.886z"></path>
</symbol>
</defs>
</svg>
