<svg aria-hidden="true" style="position: absolute; width: 0; height: 0; overflow: hidden;" version="1.1" xmlns="http://www.w3.org/2000/svg" xmlns:xlink="http://www.w3.org/1999/xlink">
<defs>
<symbol id="icon-files" viewBox="0 0 30 32">
<path d="M10.040 17.884c0-0.693 0.562-1.255 1.255-1.255h7.53c0.693 0 1.255 0.562 1.255 1.255s-0.562 1.255-1.255 1.255h-7.529c-0.693 0-1.255-0.562-1.255-1.255z"></path>
<path d="M10.040 22.59c0-0.693 0.562-1.255 1.255-1.255h3.765c0.693 0 1.255 0.562 1.255 1.255s-0.562 1.255-1.255 1.255h-3.765c-0.693 0-1.255-0.562-1.255-1.255z"></path>
<path d="M11.348 2.879c0.235-0.235 0.555-0.368 0.887-0.368h8.471c2.772 0 5.019 2.247 5.019 5.020v16.941c0 2.772-2.247 5.019-5.019 5.019h-11.294c-2.772 0-5.020-2.247-5.020-5.020l0-14.118c0-0.333 0.132-0.652 0.368-0.887l6.588-6.588zM11.922 5.854v4.186h-4.186l4.186-4.186zM6.902 12.55l-0 11.921c0 1.386 1.124 2.51 2.51 2.51h11.294c1.386 0 2.51-1.124 2.51-2.51v-16.941c0-1.386-1.124-2.51-2.51-2.51h-6.275v6.275c0 0.693-0.562 1.255-1.255 1.255h-6.274z"></path>
</symbol>
<symbol id="icon-mic" viewBox="0 0 30 32">
<path d="M7.78 8.973c0-4.020 3.259-7.278 7.278-7.278s7.278 3.259 7.278 7.278v6.024c0 4.020-3.259 7.278-7.279 7.278s-7.278-3.259-7.278-7.278v-6.024zM15.059 4.205c-2.634 0-4.769 2.135-4.769 4.769v6.024c0 2.634 2.135 4.769 4.769 4.769s4.769-2.135 4.769-4.769v-6.024c0-2.634-2.135-4.769-4.769-4.769z"></path>
<path d="M5.020 11.734c0.693 0 1.255 0.562 1.255 1.255v2.008c0 4.851 3.933 8.784 8.784 8.784s8.784-3.933 8.784-8.784v-2.008c0-0.693 0.562-1.255 1.255-1.255s1.255 0.562 1.255 1.255v2.008c0 6.238-5.057 11.294-11.294 11.294s-11.294-5.057-11.294-11.294v-2.008c0-0.693 0.562-1.255 1.255-1.255z"></path>
<path d="M15.059 24.785c0.693 0 1.255 0.562 1.255 1.255v1.757h2.761c0.693 0 1.255 0.562 1.255 1.255s-0.562 1.255-1.255 1.255h-8.031c-0.693 0-1.255-0.562-1.255-1.255s0.562-1.255 1.255-1.255h2.761v-1.757c0-0.693 0.562-1.255 1.255-1.255z"></path>
</symbol>
<symbol id="icon-play" viewBox="0 0 30 32">
<path d="M20.163 14.005c1.314 1.005 1.314 2.984 0 3.988l-5.747 4.393c-1.652 1.262-4.034 0.085-4.034-1.994v-8.785c0-2.079 2.382-3.256 4.034-1.994l5.747 4.393zM18.639 15.999l-5.747-4.393v8.785l5.747-4.393z"></path>
<path d="M15.059 4.705c-6.238 0-11.294 5.057-11.294 11.294s5.057 11.294 11.294 11.294c6.237 0 11.294-5.056 11.294-11.294s-5.057-11.294-11.294-11.294zM1.255 15.999c0-7.624 6.18-13.804 13.804-13.804s13.804 6.18 13.804 13.804c0 7.624-6.18 13.804-13.804 13.804s-13.804-6.18-13.804-13.804z"></path>
</symbol>
<symbol id="icon-right" viewBox="0 0 32 32">
<path d="M19.724 9.057c0.521-0.521 1.365-0.521 1.886 0l6 6c0.521 0.521 0.521 1.365 0 1.886l-6 6c-0.521 0.521-1.365 0.521-1.886 0s-0.521-1.365 0-1.886l3.724-3.724h-18.114c-0.736 0-1.333-0.597-1.333-1.333s0.597-1.333 1.333-1.333h18.114l-3.724-3.724c-0.521-0.521-0.521-1.365 0-1.886z"></path>
</symbol>
</defs>
</svg>
