<svg aria-hidden="true" style="position: absolute; width: 0; height: 0; overflow: hidden;" version="1.1" xmlns="http://www.w3.org/2000/svg" xmlns:xlink="http://www.w3.org/1999/xlink">
<defs>
<symbol id="icon-YouTube" viewBox="0 0 32 32">
<path fill="#fff" style="fill: var(--color1, #fff)" d="M28.52 5.485c1.371 0.369 2.451 1.45 2.82 2.821 0.686 2.504 0.659 7.723 0.659 7.723s0 5.193-0.659 7.697c-0.369 1.371-1.45 2.451-2.821 2.82-2.504 0.659-12.52 0.659-12.52 0.659s-9.99 0-12.521-0.685c-1.371-0.369-2.451-1.45-2.821-2.821-0.659-2.478-0.659-7.697-0.659-7.697s0-5.193 0.659-7.697c0.369-1.371 1.476-2.478 2.82-2.847 2.504-0.659 12.521-0.659 12.521-0.659s10.017 0 12.521 0.685zM21.14 16.002l-8.329 4.797v-9.595l8.329 4.797z"></path>
</symbol>
</defs>
</svg>
